<?xml version="1.0" standalone="no"?>
<!DOCTYPE svg PUBLIC "-//W3C//DTD SVG 1.1//EN" "http://www.w3.org/Graphics/SVG/1.1/DTD/svg11.dtd" >
<svg xmlns="http://www.w3.org/2000/svg" xmlns:xlink="http://www.w3.org/1999/xlink" version="1.1">
<metadata></metadata>
<defs>
<font id="falschungsershwerende-schriRg" horiz-adv-x="1167" >
<font-face units-per-em="2048" ascent="1503" descent="-545" />
<missing-glyph horiz-adv-x="500" />
<glyph horiz-adv-x="0" />
<glyph horiz-adv-x="682" />
<glyph unicode=" " />
<glyph unicode="-" d="M102 612v45q0 33 27.5 50.5t63.5 17.5h782q36 0 63 -17.5t27 -50.5v-45q0 -34 -26.5 -49.5t-63.5 -15.5h-782q-37 0 -64 15.5t-27 49.5z" />
<glyph unicode="0" d="M143 338v854q0 25 1.5 48t8.5 56t18 60t32.5 55.5t50 48.5t72.5 32.5t98 12.5h274q84 0 160 -44t82 -75q3 -17 -20 -40l-123 -125q-9 -12 -23 -4.5t-8 26.5q9 33 -26.5 64.5t-86.5 31.5h-164q-35 0 -56 -6.5t-33.5 -20.5t-17 -36t-5.5 -53.5t0 -73.5v-750q0 -27 1 -43.5 t7 -46.5t17 -47.5t35 -32t57 -14.5h202q41 3 67 22t35.5 52t12 54.5t2.5 55.5v678q0 27 3.5 38.5t19.5 27.5l147 145q15 12 28 6.5t13 -24.5v-932q0 -141 -77.5 -239.5t-217.5 -98.5h-291q-140 0 -217.5 98.5t-77.5 239.5z" />
<glyph unicode="1" d="M129 74v55q0 46 16.5 60t67.5 14h266q49 0 49 41v876q0 32 -19 41t-36 -6l-94 -90q-33 -33 -86 -33h-113q-32 0 -41.5 4.5t-9.5 26.5v135q0 22 9.5 26.5t41.5 4.5h76q37 0 58.5 11.5t47.5 43.5l144 176q34 45 65 45h123q18 0 26 -1t18 -5.5t14 -16t4 -30.5v-1204 q0 -23 7.5 -34t29.5 -11h159q48 0 66 -15t18 -59v-55q0 -35 -18.5 -54.5t-65.5 -19.5h-739q-47 0 -65.5 19.5t-18.5 54.5z" />
<glyph unicode="2" d="M150 66v141q0 105 79 178q3 3 37.5 34.5t56.5 52.5t66.5 64.5t76.5 78t76.5 84.5t76 92t65.5 94t55 96.5t35 92.5t14 89q0 90 -47.5 132t-142.5 42h-37q-60 0 -98.5 -13.5t-56 -41.5t-23.5 -55.5t-6 -69.5q0 -53 -41 -53h-129q-48 0 -45 76q1 56 12 102.5t27.5 80t43 60 t50 43t59 28.5t59.5 17.5t60.5 8.5t53.5 3.5t47 0.5h10h34q205 0 297.5 -98.5t90.5 -278.5q-1 -85 -29 -170t-67 -151t-101 -141t-111 -124t-116.5 -115.5t-100.5 -101.5q-30 -32 -38.5 -61.5t3 -45.5t37.5 -16h482q34 2 44.5 -6.5t10.5 -42.5v-113q0 -35 -15.5 -46.5 t-74.5 -12.5h-711q-29 0 -49 15.5t-20 50.5z" />
<glyph unicode="3" d="M143 281v45q0 30 9.5 45.5t40.5 15.5h137q12 0 20.5 -3.5t12.5 -7t6 -13.5t2 -14v-17q0 -54 49 -94.5t104 -40.5h86q175 0 178 196v74q1 41 -1.5 72.5t-12.5 64.5t-26.5 54.5t-47 35t-71.5 13.5h-144q-34 0 -49.5 11t-15.5 44v69q0 17 4 31.5t6.5 22t17.5 22.5t18.5 18 t27.5 23l288 221q29 22 33 51.5t-15 49.5t-50 20h-492q-72 0 -72 66v82q0 67 72 67h686q31 0 48.5 -21.5t17.5 -62.5v-256q0 -48 -13 -70.5t-55 -54.5l-176 -139q-61 -43 -54 -72q6 -17 33 -18q151 0 213.5 -62t63.5 -214v-228q0 -80 -39.5 -144t-104 -102.5t-140.5 -58.5 t-156 -20h-76q-162 0 -262.5 90.5t-100.5 208.5z" />
<glyph unicode="4" d="M137 330v209q0 84 33 131l549 798q19 24 31 30.5t32 6.5h133q39 0 51.5 -28t-8.5 -56l-565 -819q-19 -29 -23.5 -42.5t-4.5 -35.5q0 -23 12 -38t35 -15h215q47 0 59 12t12 62v149q0 44 15.5 64t58.5 20h78q42 0 58 -20t16 -64v-149q0 -43 6.5 -58.5t27.5 -15.5h25 q34 0 41.5 -15.5t5.5 -58.5v-43v-23.5t-1 -17t-4 -15.5t-8 -9t-13.5 -7t-20.5 -1h-25q-21 0 -27.5 -14t-6.5 -54v-129q0 -44 -16 -64t-58 -20h-78q-43 0 -58.5 20t-15.5 64v129q0 45 -12.5 56.5t-58.5 11.5h-400q-33 0 -48 1.5t-28.5 13t-13.5 34.5z" />
<glyph unicode="5" d="M145 178v105q0 30 9.5 45.5t40.5 15.5h124q12 0 20.5 -4t12.5 -8.5t6 -15.5t2 -15v-18q0 -51 47.5 -72t153.5 -21h2q228 0 228 332v25q0 47 -7.5 87t-26.5 78.5t-57 60t-92 20.5q-61 -1 -104.5 -19.5t-69.5 -36.5t-45 -18h-176q-17 0 -25 1.5t-16 11t-8 28.5v661 q0 44 15.5 64t58.5 20h665q53 0 68.5 -20.5t15.5 -75.5q-2 -54 -17 -74t-67 -20h-481q-22 0 -29.5 -9.5t-7.5 -31.5v-381q0 -25 13 -25q9 0 60 30q112 67 216 67q91 0 159.5 -29t109 -80.5t60.5 -116.5t21 -143v-68q0 -129 -23.5 -226t-63 -157.5t-100.5 -97.5t-127 -51 t-151 -14h-51q-184 0 -273.5 57t-89.5 139z" />
<glyph unicode="6" d="M111 528q0 121 36 251t91 216l278 486q8 15 14 19.5t23 4.5h188q18 0 25 -11.5t-8 -43.5l-264 -465q-11 -22 -12.5 -35.5t4.5 -19t20.5 -6t32 2.5t43.5 8q8 2 13 3t13.5 2.5t14 2.5t14.5 2.5t15.5 2.5t15 2t15.5 1.5t15.5 1t16.5 1t16 0.5q153 0 239.5 -108t86.5 -299 q0 -49 -5.5 -99.5t-20 -107t-37.5 -107t-60.5 -97t-84.5 -80.5t-113.5 -54t-145.5 -20q-90 0 -163 20.5t-122 52.5t-85.5 79.5t-57 94.5t-32.5 104t-15.5 101.5t-3.5 93.5zM350 504q0 -64 9.5 -112.5t34 -94t74 -70t122.5 -24.5q59 0 102.5 17t69.5 44.5t41.5 68.5t20.5 81 t5 90q0 60 -3.5 97t-16 75t-36 58.5t-64.5 33t-101 12.5q-83 0 -133.5 -14.5t-77.5 -51.5t-36 -83.5t-11 -126.5z" />
<glyph unicode="7" d="M156 1159v279q1 38 20 52.5t53 14.5h742q26 0 33.5 -10.5t7.5 -40.5v-172q0 -45 -21 -90l-393 -719q-6 -10 -16.5 -27t-13.5 -22.5t-9.5 -17.5t-8 -17.5t-4 -15.5t-3 -20t-0.5 -23v-279q0 -31 -4.5 -41t-26.5 -10h-166q-22 0 -26.5 10t-4.5 41l-6 338q0 23 5 43 t10.5 30.5t17.5 31.5l363 651q12 19 17.5 32.5t6 21t0.5 24.5v26q0 21 -9.5 28t-33.5 7h-274q-38 3 -41 -47v-78q0 -32 -9 -39.5t-57 -7.5h-76q-26 0 -38.5 1.5t-23.5 12.5t-11 33z" />
<glyph unicode="8" d="M145 473q0 103 38 197.5t110 150.5q8 6 9 17t-7 20q-55 57 -83 131.5t-28 134.5q0 79 21 147.5t66 126.5t125 92t188 34t188 -34t124.5 -92t65.5 -126.5t21 -147.5q0 -61 -27.5 -135.5t-83.5 -130.5q-8 -9 -7 -20t9 -17q74 -56 111 -149.5t37 -198.5q0 -69 -11 -132.5 t-41.5 -131t-78 -116t-126.5 -80t-181 -31.5t-181 31.5t-126.5 80.5t-78.5 116t-42 130.5t-11 132.5zM373 461q0 -110 51.5 -181t159.5 -71t159.5 71t51.5 181q0 39 -2 68t-14 72.5t-33 71.5t-62.5 49t-99.5 21t-99.5 -21t-62.5 -49t-33 -71.5t-14 -72.5t-2 -68zM406 1137 q0 -34 3 -61.5t14 -60.5t29 -54.5t52 -36.5t80 -15t80 15t52 36.5t29 54.5t14 60.5t3 61.5q0 103 -48 168t-130 65t-130 -65t-48 -168z" />
<glyph unicode="9" d="M147 1022q-1 72 9 136t39.5 133.5t77.5 119t131 81.5t192 32q102 0 179 -24.5t122 -62.5t73.5 -93.5t38.5 -108.5t11 -117v-203q0 -96 -19 -153.5t-75 -145.5l-381 -591q-8 -16 -14 -20.5t-23 -4.5h-203q-18 0 -24.5 11.5t8.5 43.5l461 676q57 83 57 209v150q0 50 -10 92 t-32 78.5t-63.5 57.5t-99.5 21q-59 0 -102 -18.5t-68 -47t-39.5 -72t-19 -84t-4.5 -91.5q0 -41 3.5 -71.5t16.5 -64t35.5 -54.5t62.5 -34.5t95 -13.5q4 0 14.5 1t16.5 1.5t14 -1.5t8 -7.5t-2 -15.5l-80 -123q-15 -22 -94 -22q-131 0 -221.5 108.5t-90.5 292.5z" />
<glyph unicode="A" d="M104 30q-6 14 -6 32q0 23 8 53l246 1243q17 86 38.5 116.5t86.5 30.5h221q20 0 34.5 -2t24.5 -8.5t16 -11.5t10.5 -17.5t6.5 -20t5.5 -26t5.5 -28.5l264 -1287q5 -22 5 -40q0 -24 -8 -38q-16 -26 -73 -26h-76q-46 0 -65 18t-29 72l-33 168q-8 40 -22 54t-53 14h-265 q-44 0 -61 -15t-23 -53l-24 -137q-4 -27 -7.5 -41t-10 -32t-15 -26.5t-23 -15t-34.5 -6.5h-96q-36 0 -48 30zM420 559q-1 -5 -1 -10q0 -33 40 -33h235q24 0 31.5 8t3.5 35l-125 649q-6 24 -30.5 24t-32.5 -24z" />
<glyph unicode="B" d="M94 84v1337q0 44 15.5 64t58.5 20h352q111 0 193 -15.5t134 -43.5t83 -72t43 -94t12 -117q0 -97 -30.5 -160t-118.5 -133q-20 -15 -22 -31.5t15 -25.5q242 -112 242 -346q0 -107 -27.5 -188.5t-89 -146t-171 -98.5t-263.5 -34h-352q-43 0 -58.5 20t-15.5 64zM319 225 q0 -21 8.5 -31t30.5 -10h181q39 0 77 6.5t80 25t73.5 48t52.5 79.5t22 114q0 67 -18.5 119.5t-48 85t-69.5 54t-80.5 30t-84.5 8.5h-185q-22 0 -30.5 -10t-8.5 -31v-488zM319 936q0 -21 8.5 -31t30.5 -10h185q97 0 159 57.5t62 177.5q-1 59 -19 98.5t-51.5 59t-69.5 26.5 t-85 7h-181q-22 0 -30.5 -10t-8.5 -31v-344z" />
<glyph unicode="C" d="M106 504v399v15q0 63 1 99.5t8 106.5t20.5 114t41 100t67 88.5t101 55.5t140.5 23h342q68 1 119 -41q46 -37 46 -88q0 -6 -1 -12l-18 -262q-5 -21 -8.5 -28.5t-18 -14t-43.5 -6.5h-55q-38 0 -58 18.5t-20 42.5v133q0 40 -18 57t-68 17h-172q-39 0 -66 -10.5t-44 -32.5 t-26.5 -56t-13.5 -80t-4 -106q0 -20 -1 -42q0 -43 1 -91v-399q0 -112 4 -139q14 -102 101 -140q65 -28 178 -28q115 0 171 29.5t56 95.5v81q0 27 1.5 38t10 20.5t27.5 9.5h115q19 0 27.5 -9.5t10 -20.5t1.5 -38v-127q0 -41 -10 -79t-39 -78.5t-74 -69.5t-121.5 -48 t-175.5 -19q-83 0 -152 11.5t-120.5 30t-92 47.5t-67.5 59t-47 70t-30.5 74.5t-16.5 79t-7.5 76.5t-1.5 74z" />
<glyph unicode="D" d="M78 43v113q0 26 10 33.5t31 7.5h24q22 0 29.5 9.5t7.5 31.5v1030q0 22 -7.5 31.5t-29.5 9.5h-24q-21 0 -31 7.5t-10 33.5v112q0 25 10 34t31 9h493q93 0 166 -18t123 -47.5t85.5 -77t55.5 -94.5t31 -114t14 -121.5t3 -129.5v-381q0 -65 -3.5 -114t-16 -106t-34 -98.5 t-58.5 -82t-89 -65.5t-127 -40.5t-170 -15.5h-473q-21 0 -31 9t-10 34zM401 238q0 -22 7.5 -31.5t29.5 -9.5h154q40 0 72 4.5t56.5 11.5t43 21.5t31 27.5t20.5 37.5t13 43t7 53t2.5 58.5t0.5 68v381q-1 78 -2.5 116.5t-8 95.5t-20.5 84.5t-38.5 57t-63.5 41t-93 11.5h-174 q-22 0 -29.5 -9.5t-7.5 -31.5v-1030z" />
<glyph unicode="E" d="M94 84v1337q0 44 15.5 64t58.5 20h745q52 0 68 -22.5t16 -77.5q-2 -55 -17 -76.5t-67 -21.5h-530q-22 0 -29.5 -9.5t-7.5 -31.5v-267q0 -22 7.5 -31.5t29.5 -9.5h371q31 0 48.5 -5t25 -19t9 -26t1.5 -38q0 -23 -1.5 -34t-9 -25.5t-25.5 -20.5t-48 -6h-371 q-22 0 -29.5 -9.5t-7.5 -31.5v-487q0 -22 7.5 -31.5t29.5 -9.5h606q44 0 64 -15.5t20 -58.5v-67q0 -42 -20 -58t-64 -16h-821q-43 0 -58.5 20t-15.5 64z" />
<glyph unicode="F" d="M100 74v1102q0 329 283 329h598q52 0 68 -22.5t16 -77.5q-2 -55 -17 -76.5t-67 -21.5h-469q-46 0 -77 -9.5t-50 -26t-29 -46.5t-13 -62t-3 -82v-290q0 -22 7.5 -31.5t29.5 -9.5h493q30 0 48 -6t25.5 -21.5t9 -28t1.5 -39.5q0 -23 -1.5 -35t-8.5 -27.5t-25.5 -22.5 t-48.5 -7h-493q-22 0 -29.5 -9.5t-7.5 -31.5v-448q0 -74 -66 -74h-108q-35 0 -50.5 17t-15.5 57z" />
<glyph unicode="G" d="M98 504v676q0 159 69 242t218 83h379q104 0 161.5 -47t57.5 -119v-104q0 -29 -14.5 -45t-53.5 -16h-57q-39 0 -58.5 15.5t-19.5 39.5q0 52 -29.5 72t-86.5 20h-160q-52 0 -85.5 -14.5t-49.5 -45t-21 -64.5q-4 -28 -4 -68v-17v-620q0 -47 4 -83.5t19 -78t40.5 -69t72 -46 t110.5 -18.5q147 0 208.5 42.5t61.5 125.5v174q0 34 -11.5 48.5t-43.5 14.5h-146q-90 0 -90 66v45q0 38 16.5 52.5t73.5 14.5h320q36 0 63 -17t27 -50v-629q0 -84 -65 -84h-37q-28 0 -49 25t-46 88q-10 30 -43.5 29t-48.5 -33q-36 -65 -102.5 -96t-177.5 -31 q-121 0 -213.5 70t-140.5 188t-48 264z" />
<glyph unicode="H" d="M86 84v1337q0 44 15.5 64t58.5 20h104q42 0 58 -20t16 -64v-420q0 -43 19.5 -58t64.5 -15h323q45 0 64.5 15t19.5 58v420q0 44 15.5 64t58.5 20h105q42 0 57.5 -20t15.5 -64v-1337q0 -44 -15.5 -64t-57.5 -20h-105q-43 0 -58.5 20t-15.5 64v543q0 43 -19.5 58t-64.5 15 h-323q-45 0 -64.5 -15t-19.5 -58v-543q0 -44 -16 -64t-58 -20h-104q-43 0 -58.5 20t-15.5 64z" />
<glyph unicode="I" d="M252 74v67q0 43 20 58.5t64 15.5h94q22 0 29.5 9.5t7.5 31.5v1036q0 22 -7.5 31.5t-29.5 9.5h-94q-44 0 -64 15.5t-20 58.5v25q0 32 22 52.5t62 20.5h493q40 0 62 -20.5t22 -52.5v-25q0 -43 -20 -58.5t-64 -15.5h-73q-22 0 -29.5 -9.5t-7.5 -31.5v-1036q0 -22 7.5 -31.5 t29.5 -9.5h73q44 0 64 -15.5t20 -58.5v-67q0 -32 -22 -53t-62 -21h-493q-40 0 -62 21t-22 53z" />
<glyph unicode="J" d="M106 276v152q0 27 1.5 38t10 20.5t27.5 9.5h127q19 0 27.5 -9.5t10 -20.5t1.5 -38v-106q0 -66 56.5 -95.5t171.5 -29.5q60 0 106 8t75.5 22t50 34t30 43.5t15.5 51t5.5 57t-0.5 59.5v32v682v18q0 63 -13 88q-15 29 -79 29h-213q-33 0 -46 11t-13 42v76q0 31 13.5 43 t45.5 12h363q33 0 48 -0.5t38 -2.5t32.5 -6.5t23.5 -13.5t19 -22t11.5 -32.5t8 -45.5t1.5 -61v-817q0 -61 -1.5 -96.5t-11.5 -98t-28.5 -101t-57 -86.5t-92.5 -75t-138.5 -46t-192.5 -19q-99 0 -176.5 19t-125 48.5t-78 69.5t-42 78.5t-11.5 78.5z" />
<glyph unicode="K" d="M94 84v1337q0 44 15.5 64t58.5 20h92q42 0 58 -20t16 -64v-522q0 -16 16.5 -23t40.5 1t41 30l430 553q17 27 35 36t53 9h56q42 0 57 -28q6 -12 6 -25q0 -19 -12 -41l-393 -553q-22 -29 -2 -59l399 -705q12 -22 12 -41q0 -13 -6 -25q-15 -28 -57 -28h-109q-29 0 -44 8.5 t-32 36.5l-368 655q-17 29 -46.5 39.5t-53 -2.5t-23.5 -45v-608q0 -44 -16 -64t-58 -20h-92q-43 0 -58.5 20t-15.5 64z" />
<glyph unicode="L" d="M100 84v1337q0 44 15.5 64t58.5 20h82q45 0 64.5 -21t19.5 -63v-1175q0 -22 7.5 -31.5t29.5 -9.5h377q61 0 84.5 24t23.5 74v119q0 27 1.5 38t10 20t27.5 9h125q19 0 27.5 -9t10 -20t1.5 -38v-250q0 -85 -46.5 -128.5t-125.5 -43.5h-719q-43 0 -58.5 20t-15.5 64z" />
<glyph unicode="M" d="M111 84v1337q0 45 15 64.5t58 19.5h222q21 0 29.5 -12.5t15.5 -42.5l106 -395q8 -24 29.5 -24t27.5 24l138 399q1 4 4 11.5l4 10t3.5 7.5t3.5 6.5t3.5 5t4.5 4.5l5 2.5t6.5 2t8 1t10.5 0.5h180q42 0 58 -20t16 -64v-1337q0 -44 -16 -64t-58 -20h-55q-43 0 -58.5 20 t-15.5 64v1128q0 19 -13 30.5t-29 5.5t-23 -31l-170 -560q-15 -45 -62 -45q-31 0 -44.5 11.5t-18.5 33.5l-121 523q-13 69 -46 69q-24 -1 -35 -29q-5 -11 -5 -22v-1114q0 -44 -16 -64t-58 -20h-31q-43 0 -58 19.5t-15 64.5z" />
<glyph unicode="N" d="M96 84v1325q0 42 30.5 69t80.5 27h135q48 0 75 -23t44 -65l366 -1110q11 -39 27 -39q10 0 13 5.5t3 25.5v1122q0 44 15.5 64t58.5 20h55q42 0 58 -20t16 -64v-1300q0 -56 -36 -88.5t-99 -32.5h-84q-110 0 -145 86l-373 1133q-7 20 -21 20q-16 0 -16 -25v-1130 q0 -44 -16 -64t-58 -20h-55q-43 0 -58.5 20t-15.5 64z" />
<glyph unicode="O" d="M86 504v418q0 67 14 141.5t50 158.5t90 149.5t143.5 109t200.5 43.5t200.5 -43.5t143 -109t90 -149.5t50 -158.5t13.5 -141.5v-418q0 -59 -7 -112.5t-25 -116t-54 -112.5t-88.5 -92t-135.5 -65.5t-187 -23.5q-124 0 -217.5 35t-145.5 87t-84 126t-41.5 137.5t-9.5 136.5z M338 504q0 -307 246 -307q245 0 245 307v418q0 51 -5.5 101t-22.5 106.5t-43 99t-71 70.5t-103 28t-103 -28t-71.5 -70.5t-43 -99t-22.5 -106.5t-6 -101v-418z" />
<glyph unicode="P" d="M90 1362v100q0 25 10 34t31 9h457q83 0 151.5 -15t118.5 -40.5t88.5 -63t62.5 -80t40 -93.5t22 -101t6 -106q0 -79 -14 -147.5t-50.5 -135t-92.5 -113.5t-146.5 -75.5t-206.5 -28.5h-114q-21 0 -31 -7.5t-10 -29.5v-383q0 -44 -16 -65t-58 -21h-72q-43 0 -58 19.5 t-15 64.5v1196q0 22 -7.5 31.5t-29.5 9.5h-25q-21 0 -31 7.5t-10 33.5zM414 731q0 -22 7.5 -31.5t29.5 -9.5h116q143 0 213 70.5t70 245.5q-1 174 -67.5 244.5t-194.5 70.5h-137q-22 0 -29.5 -9.5t-7.5 -31.5v-549z" />
<glyph unicode="Q" d="M102 559v363q0 42 1 75t6.5 83t14.5 89.5t26.5 87.5t41.5 84t61.5 72t84 59t110.5 37.5t140 14.5q99 0 177 -20.5t127.5 -49.5t85 -79t52 -89t26 -101.5t10.5 -95t1 -88.5v-362q0 -184 -88 -272l-82 -78q-18 -16 -18.5 -30t10.5 -26l133 -170q24 -26 20 -44.5t-32 -18.5 h-113q-26 0 -40 7.5t-36 37.5l-55 70q-20 28 -49 4l-55 -53q-52 -53 -85.5 -68.5t-87.5 -15.5q-72 0 -135.5 38t-108.5 99t-77.5 137.5t-48.5 154.5t-17 148zM330 504q0 -65 22 -134.5t49 -101.5q42 -46 62 -59q30 -19 69 -19q56 0 78 17l25 20q16 19 15 28t-15 26l-164 208 q-21 28 -8.5 56t51.5 28h72q20 0 32 -6t31 -30l117 -134q24 -24 49 13q31 41 31 106v400q0 84 -2 126t-15 106t-38.5 94.5t-76.5 54.5t-126 24t-126 -24t-76.5 -54.5t-38.5 -94.5t-15 -106t-2 -126v-418z" />
<glyph unicode="R" d="M100 84v1350q0 38 13 54.5t49 16.5h653q103 0 134.5 -37.5t31.5 -136.5v-336q0 -54 -9.5 -74t-47.5 -47l-160 -102q-9 -5 -26.5 -17t-33 -21.5t-30.5 -14.5q-14 -6 -15.5 -15t9.5 -26l385 -590q16 -21 16 -39q0 -11 -6 -22q-16 -27 -66 -27h-94q-26 0 -40 7.5t-36 37.5 l-399 635q-20 30 -20 84v51q0 74 59 74h182q65 0 86 23t21 87v203q0 72 -20 95.5t-87 23.5h-330v-1235q0 -44 -15.5 -65t-57.5 -21h-72q-43 0 -58.5 20t-15.5 64zM645 713l2 -2l2 2h-4z" />
<glyph unicode="S" d="M104 184v146q0 27 1.5 38t10 20t27.5 9h146q19 0 27.5 -9t10 -20t1.5 -38v-27q0 -55 48.5 -77.5t172.5 -22.5q299 0 299 184q0 49 -29.5 94t-77.5 79t-109.5 71.5t-125.5 70t-125.5 75t-109.5 87.5t-77.5 106.5t-29.5 131.5q0 87 25.5 161t76 131.5t131.5 90.5t185 33h34 q36 0 74.5 -3t92 -10.5t98.5 -24t85.5 -40t63 -62.5t21.5 -88l-7 -133q-2 -29 -14 -39t-55 -10h-68q-59 0 -59 61v48q0 51 -63 83.5t-146 32.5h-37q-91 0 -155 -53t-64 -137q0 -50 37.5 -96t97.5 -85t132.5 -79.5t145 -89t132.5 -103t97.5 -131.5t37.5 -166 q0 -64 -12.5 -118.5t-47 -110t-90 -94.5t-148.5 -63.5t-216 -24.5q-98 0 -177.5 14t-128 35.5t-81.5 49.5t-45.5 53.5t-12.5 49.5z" />
<glyph unicode="T" d="M98 1395v37q0 32 22 52.5t62 20.5h799q40 0 62 -20.5t22 -52.5v-37q0 -43 -20 -58.5t-64 -15.5h-258q-22 0 -29.5 -9.5t-7.5 -31.5v-1196q0 -42 -19.5 -63t-64.5 -21h-94q-43 0 -58.5 20t-15.5 64v1196q0 22 -7.5 31.5t-29.5 9.5h-215q-44 0 -64 15.5t-20 58.5z" />
<glyph unicode="U" d="M92 381v1040q0 84 92 84h56q92 0 92 -84v-991q0 -56 6.5 -94.5t23.5 -72t51 -50t85 -16.5q139 0 238.5 68t99.5 161v995q0 84 92 84h55q92 0 92 -84v-1337q0 -84 -86 -84h-74q-44 0 -61.5 20.5t-17.5 63.5v29q0 25 -18.5 30t-35.5 -14q-77 -71 -157 -109t-181 -38 q-79 0 -143 31.5t-102 78t-63 103.5t-34.5 103.5t-9.5 82.5z" />
<glyph unicode="V" d="M86 1356q-5 19 -5 36q0 36 21 67q31 46 86 46q30 0 46.5 -3t35 -14.5t30.5 -36.5t22 -67l221 -976q8 -24 32.5 -24t30.5 24l264 976q15 72 40 96.5t81 24.5q63 0 83 -37q10 -19 10 -48q0 -28 -9 -64l-295 -1098q-35 -149 -74 -203.5t-110 -54.5h-80q-71 0 -110 54.5 t-74 203.5z" />
<glyph unicode="W" d="M102 522v899q0 44 16 64t58 20h74q43 0 58.5 -20t15.5 -64v-1020q0 -19 18 -30t38.5 -5t27.5 31l163 451q16 51 50 51q21 0 30 -13.5t15 -37.5l120 -408q19 -68 53 -68h2q23 1 34 30l4 20v999q0 44 15.5 64t57.5 20h37q43 0 58.5 -20t15.5 -64v-899q0 -48 -7 -81 t-28 -103l-78 -277q-10 -32 -22.5 -46.5t-38.5 -14.5h-51q-28 0 -41.5 14t-24.5 47l-137 371q-8 24 -33 24t-31 -24l-163 -383q-12 -30 -26.5 -39.5t-43.5 -9.5h-53q-41 0 -56 49l-94 289q-20 66 -26.5 100t-6.5 84z" />
<glyph unicode="X" d="M117 111l280 606q7 15 7 31t-7 34l-254 578q-13 33 -13 59q0 27 14 47q26 39 73 39h31q46 -3 66.5 -25t52.5 -96l165 -374q11 -24 30 -24t30 24l203 415q25 54 49.5 67t87.5 13h14q60 1 77 -27q7 -11 7 -28q0 -23 -14 -55l-293 -582q-17 -28 0 -59l321 -654 q13 -28 14.5 -47.5t-4 -29.5t-20.5 -15.5t-27.5 -6.5t-33.5 -1h-55q-46 3 -67.5 25.5t-51.5 95.5l-199 430q-11 24 -32.5 24t-32.5 -24l-197 -471q-12 -29 -28 -46t-36.5 -24t-34 -8.5t-38.5 -1.5h-15q-45 0 -68 30q-12 15 -12 36q0 20 11 45z" />
<glyph unicode="Y" d="M92 1456q28 49 88 49h39q12 0 21.5 -1.5t17 -2.5t15 -6t12 -7.5t10 -11.5t8 -12t8.5 -16t7.5 -18t8 -22t9.5 -24l227 -602q11 -21 30.5 -21t27.5 21l221 602q27 80 44.5 100.5t69.5 20.5h70q59 0 64 -47q1 -5 1 -11q0 -44 -32 -110l-350 -833q-13 -35 -13 -84v-336 q0 -44 -15.5 -64t-57.5 -20h-105q-43 0 -58.5 20t-15.5 64v328q0 63 -8 92l-344 819q-15 42 -15 75t15 58z" />
<glyph unicode="Z" d="M104 74v116q0 58 6 84.5t33 67.5l613 942q13 25 2 37t-43 12h-527q-41 0 -53 13t-12 55v37q0 41 12 54t53 13h803q39 0 52.5 -16.5t13.5 -50.5q0 -23 -1.5 -41.5t-2.5 -32t-7 -30t-8 -24t-13 -26.5t-15.5 -26t-22 -33.5t-24.5 -38.5l-586 -901q-22 -32 -10.5 -54 t57.5 -22h586q31 0 42 -18t11 -56v-67q0 -21 -1.5 -32.5t-14 -23.5t-37.5 -12h-860q-21 0 -31.5 12t-12.5 25t-2 37z" />
<glyph unicode="a" d="M104 30q-6 14 -6 32q0 23 8 53l246 1243q17 86 38.5 116.5t86.5 30.5h221q20 0 34.5 -2t24.5 -8.5t16 -11.5t10.5 -17.5t6.5 -20t5.5 -26t5.5 -28.5l264 -1287q5 -22 5 -40q0 -24 -8 -38q-16 -26 -73 -26h-76q-46 0 -65 18t-29 72l-33 168q-8 40 -22 54t-53 14h-265 q-44 0 -61 -15t-23 -53l-24 -137q-4 -27 -7.5 -41t-10 -32t-15 -26.5t-23 -15t-34.5 -6.5h-96q-36 0 -48 30zM420 559q-1 -5 -1 -10q0 -33 40 -33h235q24 0 31.5 8t3.5 35l-125 649q-6 24 -30.5 24t-32.5 -24z" />
<glyph unicode="b" d="M94 84v1337q0 44 15.5 64t58.5 20h352q111 0 193 -15.5t134 -43.5t83 -72t43 -94t12 -117q0 -97 -30.5 -160t-118.5 -133q-20 -15 -22 -31.5t15 -25.5q242 -112 242 -346q0 -107 -27.5 -188.5t-89 -146t-171 -98.5t-263.5 -34h-352q-43 0 -58.5 20t-15.5 64zM319 225 q0 -21 8.5 -31t30.5 -10h181q39 0 77 6.5t80 25t73.5 48t52.5 79.5t22 114q0 67 -18.5 119.5t-48 85t-69.5 54t-80.5 30t-84.5 8.5h-185q-22 0 -30.5 -10t-8.5 -31v-488zM319 936q0 -21 8.5 -31t30.5 -10h185q97 0 159 57.5t62 177.5q-1 59 -19 98.5t-51.5 59t-69.5 26.5 t-85 7h-181q-22 0 -30.5 -10t-8.5 -31v-344z" />
<glyph unicode="c" d="M106 504v399v15q0 63 1 99.5t8 106.5t20.5 114t41 100t67 88.5t101 55.5t140.5 23h342q68 1 119 -41q46 -37 46 -88q0 -6 -1 -12l-18 -262q-5 -21 -8.5 -28.5t-18 -14t-43.5 -6.5h-55q-38 0 -58 18.5t-20 42.5v133q0 40 -18 57t-68 17h-172q-39 0 -66 -10.5t-44 -32.5 t-26.5 -56t-13.5 -80t-4 -106q0 -20 -1 -42q0 -43 1 -91v-399q0 -112 4 -139q14 -102 101 -140q65 -28 178 -28q115 0 171 29.5t56 95.5v81q0 27 1.5 38t10 20.5t27.5 9.5h115q19 0 27.5 -9.5t10 -20.5t1.5 -38v-127q0 -41 -10 -79t-39 -78.5t-74 -69.5t-121.5 -48 t-175.5 -19q-83 0 -152 11.5t-120.5 30t-92 47.5t-67.5 59t-47 70t-30.5 74.5t-16.5 79t-7.5 76.5t-1.5 74z" />
<glyph unicode="d" d="M78 43v113q0 26 10 33.5t31 7.5h24q22 0 29.5 9.5t7.5 31.5v1030q0 22 -7.5 31.5t-29.5 9.5h-24q-21 0 -31 7.5t-10 33.5v112q0 25 10 34t31 9h493q93 0 166 -18t123 -47.5t85.5 -77t55.5 -94.5t31 -114t14 -121.5t3 -129.5v-381q0 -65 -3.5 -114t-16 -106t-34 -98.5 t-58.5 -82t-89 -65.5t-127 -40.5t-170 -15.5h-473q-21 0 -31 9t-10 34zM401 238q0 -22 7.5 -31.5t29.5 -9.5h154q40 0 72 4.5t56.5 11.5t43 21.5t31 27.5t20.5 37.5t13 43t7 53t2.5 58.5t0.5 68v381q-1 78 -2.5 116.5t-8 95.5t-20.5 84.5t-38.5 57t-63.5 41t-93 11.5h-174 q-22 0 -29.5 -9.5t-7.5 -31.5v-1030z" />
<glyph unicode="e" d="M94 84v1337q0 44 15.5 64t58.5 20h745q52 0 68 -22.5t16 -77.5q-2 -55 -17 -76.5t-67 -21.5h-530q-22 0 -29.5 -9.5t-7.5 -31.5v-267q0 -22 7.5 -31.5t29.5 -9.5h371q31 0 48.5 -5t25 -19t9 -26t1.5 -38q0 -23 -1.5 -34t-9 -25.5t-25.5 -20.5t-48 -6h-371 q-22 0 -29.5 -9.5t-7.5 -31.5v-487q0 -22 7.5 -31.5t29.5 -9.5h606q44 0 64 -15.5t20 -58.5v-67q0 -42 -20 -58t-64 -16h-821q-43 0 -58.5 20t-15.5 64z" />
<glyph unicode="f" d="M100 74v1102q0 329 283 329h598q52 0 68 -22.5t16 -77.5q-2 -55 -17 -76.5t-67 -21.5h-469q-46 0 -77 -9.5t-50 -26t-29 -46.5t-13 -62t-3 -82v-290q0 -22 7.5 -31.5t29.5 -9.5h493q30 0 48 -6t25.5 -21.5t9 -28t1.5 -39.5q0 -23 -1.5 -35t-8.5 -27.5t-25.5 -22.5 t-48.5 -7h-493q-22 0 -29.5 -9.5t-7.5 -31.5v-448q0 -74 -66 -74h-108q-35 0 -50.5 17t-15.5 57z" />
<glyph unicode="g" d="M98 504v676q0 159 69 242t218 83h379q104 0 161.5 -47t57.5 -119v-104q0 -29 -14.5 -45t-53.5 -16h-57q-39 0 -58.5 15.5t-19.5 39.5q0 52 -29.5 72t-86.5 20h-160q-52 0 -85.5 -14.5t-49.5 -45t-21 -64.5q-4 -28 -4 -68v-17v-620q0 -47 4 -83.5t19 -78t40.5 -69t72 -46 t110.5 -18.5q147 0 208.5 42.5t61.5 125.5v174q0 34 -11.5 48.5t-43.5 14.5h-146q-90 0 -90 66v45q0 38 16.5 52.5t73.5 14.5h320q36 0 63 -17t27 -50v-629q0 -84 -65 -84h-37q-28 0 -49 25t-46 88q-10 30 -43.5 29t-48.5 -33q-36 -65 -102.5 -96t-177.5 -31 q-121 0 -213.5 70t-140.5 188t-48 264z" />
<glyph unicode="h" d="M86 84v1337q0 44 15.5 64t58.5 20h104q42 0 58 -20t16 -64v-420q0 -43 19.5 -58t64.5 -15h323q45 0 64.5 15t19.5 58v420q0 44 15.5 64t58.5 20h105q42 0 57.5 -20t15.5 -64v-1337q0 -44 -15.5 -64t-57.5 -20h-105q-43 0 -58.5 20t-15.5 64v543q0 43 -19.5 58t-64.5 15 h-323q-45 0 -64.5 -15t-19.5 -58v-543q0 -44 -16 -64t-58 -20h-104q-43 0 -58.5 20t-15.5 64z" />
<glyph unicode="i" d="M252 74v67q0 43 20 58.5t64 15.5h94q22 0 29.5 9.5t7.5 31.5v1036q0 22 -7.5 31.5t-29.5 9.5h-94q-44 0 -64 15.5t-20 58.5v25q0 32 22 52.5t62 20.5h493q40 0 62 -20.5t22 -52.5v-25q0 -43 -20 -58.5t-64 -15.5h-73q-22 0 -29.5 -9.5t-7.5 -31.5v-1036q0 -22 7.5 -31.5 t29.5 -9.5h73q44 0 64 -15.5t20 -58.5v-67q0 -32 -22 -53t-62 -21h-493q-40 0 -62 21t-22 53z" />
<glyph unicode="j" d="M106 276v152q0 27 1.5 38t10 20.5t27.5 9.5h127q19 0 27.5 -9.5t10 -20.5t1.5 -38v-106q0 -66 56.5 -95.5t171.5 -29.5q60 0 106 8t75.5 22t50 34t30 43.5t15.5 51t5.5 57t-0.5 59.5v32v682v18q0 63 -13 88q-15 29 -79 29h-213q-33 0 -46 11t-13 42v76q0 31 13.5 43 t45.5 12h363q33 0 48 -0.5t38 -2.5t32.5 -6.5t23.5 -13.5t19 -22t11.5 -32.5t8 -45.5t1.5 -61v-817q0 -61 -1.5 -96.5t-11.5 -98t-28.5 -101t-57 -86.5t-92.5 -75t-138.5 -46t-192.5 -19q-99 0 -176.5 19t-125 48.5t-78 69.5t-42 78.5t-11.5 78.5z" />
<glyph unicode="k" d="M94 84v1337q0 44 15.5 64t58.5 20h92q42 0 58 -20t16 -64v-522q0 -16 16.5 -23t40.5 1t41 30l430 553q17 27 35 36t53 9h56q42 0 57 -28q6 -12 6 -25q0 -19 -12 -41l-393 -553q-22 -29 -2 -59l399 -705q12 -22 12 -41q0 -13 -6 -25q-15 -28 -57 -28h-109q-29 0 -44 8.5 t-32 36.5l-368 655q-17 29 -46.5 39.5t-53 -2.5t-23.5 -45v-608q0 -44 -16 -64t-58 -20h-92q-43 0 -58.5 20t-15.5 64z" />
<glyph unicode="l" d="M100 84v1337q0 44 15.5 64t58.5 20h82q45 0 64.5 -21t19.5 -63v-1175q0 -22 7.5 -31.5t29.5 -9.5h377q61 0 84.5 24t23.5 74v119q0 27 1.5 38t10 20t27.5 9h125q19 0 27.5 -9t10 -20t1.5 -38v-250q0 -85 -46.5 -128.5t-125.5 -43.5h-719q-43 0 -58.5 20t-15.5 64z" />
<glyph unicode="m" d="M111 84v1337q0 45 15 64.5t58 19.5h222q21 0 29.5 -12.5t15.5 -42.5l106 -395q8 -24 29.5 -24t27.5 24l138 399q1 4 4 11.5l4 10t3.5 7.5t3.5 6.5t3.5 5t4.5 4.5l5 2.5t6.5 2t8 1t10.5 0.5h180q42 0 58 -20t16 -64v-1337q0 -44 -16 -64t-58 -20h-55q-43 0 -58.5 20 t-15.5 64v1128q0 19 -13 30.5t-29 5.5t-23 -31l-170 -560q-15 -45 -62 -45q-31 0 -44.5 11.5t-18.5 33.5l-121 523q-13 69 -46 69q-24 -1 -35 -29q-5 -11 -5 -22v-1114q0 -44 -16 -64t-58 -20h-31q-43 0 -58 19.5t-15 64.5z" />
<glyph unicode="n" d="M96 84v1325q0 42 30.5 69t80.5 27h135q48 0 75 -23t44 -65l366 -1110q11 -39 27 -39q10 0 13 5.5t3 25.5v1122q0 44 15.5 64t58.5 20h55q42 0 58 -20t16 -64v-1300q0 -56 -36 -88.5t-99 -32.5h-84q-110 0 -145 86l-373 1133q-7 20 -21 20q-16 0 -16 -25v-1130 q0 -44 -16 -64t-58 -20h-55q-43 0 -58.5 20t-15.5 64z" />
<glyph unicode="o" d="M86 504v418q0 67 14 141.5t50 158.5t90 149.5t143.5 109t200.5 43.5t200.5 -43.5t143 -109t90 -149.5t50 -158.5t13.5 -141.5v-418q0 -59 -7 -112.5t-25 -116t-54 -112.5t-88.5 -92t-135.5 -65.5t-187 -23.5q-124 0 -217.5 35t-145.5 87t-84 126t-41.5 137.5t-9.5 136.5z M338 504q0 -307 246 -307q245 0 245 307v418q0 51 -5.5 101t-22.5 106.5t-43 99t-71 70.5t-103 28t-103 -28t-71.5 -70.5t-43 -99t-22.5 -106.5t-6 -101v-418z" />
<glyph unicode="p" d="M90 1362v100q0 25 10 34t31 9h457q83 0 151.5 -15t118.5 -40.5t88.5 -63t62.5 -80t40 -93.5t22 -101t6 -106q0 -79 -14 -147.5t-50.5 -135t-92.5 -113.5t-146.5 -75.5t-206.5 -28.5h-114q-21 0 -31 -7.5t-10 -29.5v-383q0 -44 -16 -65t-58 -21h-72q-43 0 -58 19.5 t-15 64.5v1196q0 22 -7.5 31.5t-29.5 9.5h-25q-21 0 -31 7.5t-10 33.5zM414 731q0 -22 7.5 -31.5t29.5 -9.5h116q143 0 213 70.5t70 245.5q-1 174 -67.5 244.5t-194.5 70.5h-137q-22 0 -29.5 -9.5t-7.5 -31.5v-549z" />
<glyph unicode="q" d="M102 559v363q0 42 1 75t6.5 83t14.5 89.5t26.5 87.5t41.5 84t61.5 72t84 59t110.5 37.5t140 14.5q99 0 177 -20.5t127.5 -49.5t85 -79t52 -89t26 -101.5t10.5 -95t1 -88.5v-362q0 -184 -88 -272l-82 -78q-18 -16 -18.5 -30t10.5 -26l133 -170q24 -26 20 -44.5t-32 -18.5 h-113q-26 0 -40 7.5t-36 37.5l-55 70q-20 28 -49 4l-55 -53q-52 -53 -85.5 -68.5t-87.5 -15.5q-72 0 -135.5 38t-108.5 99t-77.5 137.5t-48.5 154.5t-17 148zM330 504q0 -65 22 -134.5t49 -101.5q42 -46 62 -59q30 -19 69 -19q56 0 78 17l25 20q16 19 15 28t-15 26l-164 208 q-21 28 -8.5 56t51.5 28h72q20 0 32 -6t31 -30l117 -134q24 -24 49 13q31 41 31 106v400q0 84 -2 126t-15 106t-38.5 94.5t-76.5 54.5t-126 24t-126 -24t-76.5 -54.5t-38.5 -94.5t-15 -106t-2 -126v-418z" />
<glyph unicode="r" d="M100 84v1350q0 38 13 54.5t49 16.5h653q103 0 134.5 -37.5t31.5 -136.5v-336q0 -54 -9.5 -74t-47.5 -47l-160 -102q-9 -5 -26.5 -17t-33 -21.5t-30.5 -14.5q-14 -6 -15.5 -15t9.5 -26l385 -590q16 -21 16 -39q0 -11 -6 -22q-16 -27 -66 -27h-94q-26 0 -40 7.5t-36 37.5 l-399 635q-20 30 -20 84v51q0 74 59 74h182q65 0 86 23t21 87v203q0 72 -20 95.5t-87 23.5h-330v-1235q0 -44 -15.5 -65t-57.5 -21h-72q-43 0 -58.5 20t-15.5 64zM645 713l2 -2l2 2h-4z" />
<glyph unicode="s" d="M104 184v146q0 27 1.5 38t10 20t27.5 9h146q19 0 27.5 -9t10 -20t1.5 -38v-27q0 -55 48.5 -77.5t172.5 -22.5q299 0 299 184q0 49 -29.5 94t-77.5 79t-109.5 71.5t-125.5 70t-125.5 75t-109.5 87.5t-77.5 106.5t-29.5 131.5q0 87 25.5 161t76 131.5t131.5 90.5t185 33h34 q36 0 74.5 -3t92 -10.5t98.5 -24t85.5 -40t63 -62.5t21.5 -88l-7 -133q-2 -29 -14 -39t-55 -10h-68q-59 0 -59 61v48q0 51 -63 83.5t-146 32.5h-37q-91 0 -155 -53t-64 -137q0 -50 37.5 -96t97.5 -85t132.5 -79.5t145 -89t132.5 -103t97.5 -131.5t37.5 -166 q0 -64 -12.5 -118.5t-47 -110t-90 -94.5t-148.5 -63.5t-216 -24.5q-98 0 -177.5 14t-128 35.5t-81.5 49.5t-45.5 53.5t-12.5 49.5z" />
<glyph unicode="t" d="M98 1395v37q0 32 22 52.5t62 20.5h799q40 0 62 -20.5t22 -52.5v-37q0 -43 -20 -58.5t-64 -15.5h-258q-22 0 -29.5 -9.5t-7.5 -31.5v-1196q0 -42 -19.5 -63t-64.5 -21h-94q-43 0 -58.5 20t-15.5 64v1196q0 22 -7.5 31.5t-29.5 9.5h-215q-44 0 -64 15.5t-20 58.5z" />
<glyph unicode="u" d="M92 381v1040q0 84 92 84h56q92 0 92 -84v-991q0 -56 6.5 -94.5t23.5 -72t51 -50t85 -16.5q139 0 238.5 68t99.5 161v995q0 84 92 84h55q92 0 92 -84v-1337q0 -84 -86 -84h-74q-44 0 -61.5 20.5t-17.5 63.5v29q0 25 -18.5 30t-35.5 -14q-77 -71 -157 -109t-181 -38 q-79 0 -143 31.5t-102 78t-63 103.5t-34.5 103.5t-9.5 82.5z" />
<glyph unicode="v" d="M86 1356q-5 19 -5 36q0 36 21 67q31 46 86 46q30 0 46.5 -3t35 -14.5t30.5 -36.5t22 -67l221 -976q8 -24 32.5 -24t30.5 24l264 976q15 72 40 96.5t81 24.5q63 0 83 -37q10 -19 10 -48q0 -28 -9 -64l-295 -1098q-35 -149 -74 -203.5t-110 -54.5h-80q-71 0 -110 54.5 t-74 203.5z" />
<glyph unicode="w" d="M102 522v899q0 44 16 64t58 20h74q43 0 58.5 -20t15.5 -64v-1020q0 -19 18 -30t38.5 -5t27.5 31l163 451q16 51 50 51q21 0 30 -13.5t15 -37.5l120 -408q19 -68 53 -68h2q23 1 34 30l4 20v999q0 44 15.5 64t57.5 20h37q43 0 58.5 -20t15.5 -64v-899q0 -48 -7 -81 t-28 -103l-78 -277q-10 -32 -22.5 -46.5t-38.5 -14.5h-51q-28 0 -41.5 14t-24.5 47l-137 371q-8 24 -33 24t-31 -24l-163 -383q-12 -30 -26.5 -39.5t-43.5 -9.5h-53q-41 0 -56 49l-94 289q-20 66 -26.5 100t-6.5 84z" />
<glyph unicode="x" d="M117 111l280 606q7 15 7 31t-7 34l-254 578q-13 33 -13 59q0 27 14 47q26 39 73 39h31q46 -3 66.5 -25t52.5 -96l165 -374q11 -24 30 -24t30 24l203 415q25 54 49.5 67t87.5 13h14q60 1 77 -27q7 -11 7 -28q0 -23 -14 -55l-293 -582q-17 -28 0 -59l321 -654 q13 -28 14.5 -47.5t-4 -29.5t-20.5 -15.5t-27.5 -6.5t-33.5 -1h-55q-46 3 -67.5 25.5t-51.5 95.5l-199 430q-11 24 -32.5 24t-32.5 -24l-197 -471q-12 -29 -28 -46t-36.5 -24t-34 -8.5t-38.5 -1.5h-15q-45 0 -68 30q-12 15 -12 36q0 20 11 45z" />
<glyph unicode="y" d="M92 1456q28 49 88 49h39q12 0 21.5 -1.5t17 -2.5t15 -6t12 -7.5t10 -11.5t8 -12t8.5 -16t7.5 -18t8 -22t9.5 -24l227 -602q11 -21 30.5 -21t27.5 21l221 602q27 80 44.5 100.5t69.5 20.5h70q59 0 64 -47q1 -5 1 -11q0 -44 -32 -110l-350 -833q-13 -35 -13 -84v-336 q0 -44 -15.5 -64t-57.5 -20h-105q-43 0 -58.5 20t-15.5 64v328q0 63 -8 92l-344 819q-15 42 -15 75t15 58z" />
<glyph unicode="z" d="M104 74v116q0 58 6 84.5t33 67.5l613 942q13 25 2 37t-43 12h-527q-41 0 -53 13t-12 55v37q0 41 12 54t53 13h803q39 0 52.5 -16.5t13.5 -50.5q0 -23 -1.5 -41.5t-2.5 -32t-7 -30t-8 -24t-13 -26.5t-15.5 -26t-22 -33.5t-24.5 -38.5l-586 -901q-22 -32 -10.5 -54 t57.5 -22h586q31 0 42 -18t11 -56v-67q0 -21 -1.5 -32.5t-14 -23.5t-37.5 -12h-860q-21 0 -31.5 12t-12.5 25t-2 37z" />
<glyph unicode="&#xa0;" />
<glyph unicode="&#xad;" d="M102 612v45q0 33 27.5 50.5t63.5 17.5h782q36 0 63 -17.5t27 -50.5v-45q0 -34 -26.5 -49.5t-63.5 -15.5h-782q-37 0 -64 15.5t-27 49.5z" />
<glyph unicode="&#xc4;" d="M92 1393v45q0 33 27 50t63 17h123q36 0 63 -17t27 -50v-45q0 -34 -26.5 -50t-63.5 -16h-123q-37 0 -63.5 16t-26.5 50zM106 30q-12 30 3 85l251 1073q19 75 43 95t95 20h166q68 0 91.5 -22t41.5 -93l270 -1084q12 -51 -3.5 -77.5t-72.5 -26.5h-69q-46 0 -65.5 18 t-29.5 72l-32 150q-8 39 -22.5 53t-53.5 14h-277q-44 0 -61 -14.5t-23 -52.5l-24 -119q-4 -27 -7.5 -41t-10 -32t-15 -26.5t-23 -15t-34.5 -6.5h-90q-36 0 -48 30zM422 535q-6 -43 39 -43h235q24 0 31.5 8t3.5 35l-125 550q-6 24 -30.5 24t-32.5 -24zM719 1393v45 q0 33 27 50t63 17h123q36 0 63 -17t27 -50v-45q0 -34 -26.5 -50t-63.5 -16h-123q-37 0 -63.5 16t-26.5 50z" />
<glyph unicode="&#xd6;" d="M86 504v141q0 67 14 141.5t50 158.5t90 149.5t143.5 109t200.5 43.5t200.5 -43.5t143 -109t90 -149.5t50 -158.5t13.5 -141.5v-141q0 -59 -7 -112.5t-25 -116t-54 -112.5t-88.5 -92t-135.5 -65.5t-187 -23.5q-124 0 -217.5 35t-145.5 87t-84 126t-41.5 137.5t-9.5 136.5z M119 1393v45q0 33 27 50t63 17h123q36 0 63 -17t27 -50v-45q0 -34 -26.5 -50t-63.5 -16h-123q-37 0 -63.5 16t-26.5 50zM301 504q0 -47 9.5 -90.5t31.5 -83t54.5 -69t80.5 -47t107 -17.5q73 0 129 26t88.5 70.5t48.5 98t16 112.5v123q0 53 -9.5 109.5t-31.5 113t-53.5 101 t-80.5 72.5t-107 28q-72 0 -129 -41.5t-89 -107.5t-48.5 -136.5t-16.5 -138.5v-123zM745 1393v45q0 33 27.5 50t63.5 17h122q36 0 63.5 -17t27.5 -50v-45q0 -34 -27 -50t-64 -16h-122q-37 0 -64 16t-27 50z" />
<glyph unicode="&#xdc;" d="M92 381v704q0 84 92 84h56q92 0 92 -84v-655q0 -56 6.5 -94.5t23.5 -72t51 -50t85 -16.5q139 0 238.5 68t99.5 161v659q0 84 92 84h55q92 0 92 -84v-1001q0 -84 -86 -84h-74q-44 0 -61.5 20.5t-17.5 63.5v29q0 25 -18.5 30t-35.5 -14q-77 -71 -157 -109t-181 -38 q-79 0 -143 31.5t-102 78t-63 103.5t-34.5 103.5t-9.5 82.5zM127 1393v45q0 33 27 50t63 17h123q36 0 63 -17t27 -50v-45q0 -34 -26.5 -50t-63.5 -16h-123q-37 0 -63.5 16t-26.5 50zM754 1393v45q0 33 27 50t63 17h123q36 0 63 -17t27 -50v-45q0 -34 -26.5 -50t-63.5 -16 h-123q-37 0 -63.5 16t-26.5 50z" />
<glyph unicode="&#xe4;" d="M92 1393v45q0 33 27 50t63 17h123q36 0 63 -17t27 -50v-45q0 -34 -26.5 -50t-63.5 -16h-123q-37 0 -63.5 16t-26.5 50zM106 30q-12 30 3 85l251 1073q19 75 43 95t95 20h166q68 0 91.5 -22t41.5 -93l270 -1084q12 -51 -3.5 -77.5t-72.5 -26.5h-69q-46 0 -65.5 18 t-29.5 72l-32 150q-8 39 -22.5 53t-53.5 14h-277q-44 0 -61 -14.5t-23 -52.5l-24 -119q-4 -27 -7.5 -41t-10 -32t-15 -26.5t-23 -15t-34.5 -6.5h-90q-36 0 -48 30zM422 535q-6 -43 39 -43h235q24 0 31.5 8t3.5 35l-125 550q-6 24 -30.5 24t-32.5 -24zM719 1393v45 q0 33 27 50t63 17h123q36 0 63 -17t27 -50v-45q0 -34 -26.5 -50t-63.5 -16h-123q-37 0 -63.5 16t-26.5 50z" />
<glyph unicode="&#xf6;" d="M86 504v141q0 67 14 141.5t50 158.5t90 149.5t143.5 109t200.5 43.5t200.5 -43.5t143 -109t90 -149.5t50 -158.5t13.5 -141.5v-141q0 -59 -7 -112.5t-25 -116t-54 -112.5t-88.5 -92t-135.5 -65.5t-187 -23.5q-124 0 -217.5 35t-145.5 87t-84 126t-41.5 137.5t-9.5 136.5z M119 1393v45q0 33 27 50t63 17h123q36 0 63 -17t27 -50v-45q0 -34 -26.5 -50t-63.5 -16h-123q-37 0 -63.5 16t-26.5 50zM301 504q0 -47 9.5 -90.5t31.5 -83t54.5 -69t80.5 -47t107 -17.5q73 0 129 26t88.5 70.5t48.5 98t16 112.5v123q0 53 -9.5 109.5t-31.5 113t-53.5 101 t-80.5 72.5t-107 28q-72 0 -129 -41.5t-89 -107.5t-48.5 -136.5t-16.5 -138.5v-123zM745 1393v45q0 33 27.5 50t63.5 17h122q36 0 63.5 -17t27.5 -50v-45q0 -34 -27 -50t-64 -16h-122q-37 0 -64 16t-27 50z" />
<glyph unicode="&#xfc;" d="M92 381v704q0 84 92 84h56q92 0 92 -84v-655q0 -56 6.5 -94.5t23.5 -72t51 -50t85 -16.5q139 0 238.5 68t99.5 161v659q0 84 92 84h55q92 0 92 -84v-1001q0 -84 -86 -84h-74q-44 0 -61.5 20.5t-17.5 63.5v29q0 25 -18.5 30t-35.5 -14q-77 -71 -157 -109t-181 -38 q-79 0 -143 31.5t-102 78t-63 103.5t-34.5 103.5t-9.5 82.5zM127 1393v45q0 33 27 50t63 17h123q36 0 63 -17t27 -50v-45q0 -34 -26.5 -50t-63.5 -16h-123q-37 0 -63.5 16t-26.5 50zM754 1393v45q0 33 27 50t63 17h123q36 0 63 -17t27 -50v-45q0 -34 -26.5 -50t-63.5 -16 h-123q-37 0 -63.5 16t-26.5 50z" />
<glyph unicode="&#x2000;" horiz-adv-x="762" />
<glyph unicode="&#x2001;" horiz-adv-x="1524" />
<glyph unicode="&#x2002;" horiz-adv-x="762" />
<glyph unicode="&#x2003;" horiz-adv-x="1524" />
<glyph unicode="&#x2004;" horiz-adv-x="508" />
<glyph unicode="&#x2005;" horiz-adv-x="381" />
<glyph unicode="&#x2006;" horiz-adv-x="254" />
<glyph unicode="&#x2007;" horiz-adv-x="254" />
<glyph unicode="&#x2008;" horiz-adv-x="190" />
<glyph unicode="&#x2009;" horiz-adv-x="304" />
<glyph unicode="&#x200a;" horiz-adv-x="84" />
<glyph unicode="&#x2010;" d="M102 612v45q0 33 27.5 50.5t63.5 17.5h782q36 0 63 -17.5t27 -50.5v-45q0 -34 -26.5 -49.5t-63.5 -15.5h-782q-37 0 -64 15.5t-27 49.5z" />
<glyph unicode="&#x2011;" d="M102 612v45q0 33 27.5 50.5t63.5 17.5h782q36 0 63 -17.5t27 -50.5v-45q0 -34 -26.5 -49.5t-63.5 -15.5h-782q-37 0 -64 15.5t-27 49.5z" />
<glyph unicode="&#x2012;" d="M102 612v45q0 33 27.5 50.5t63.5 17.5h782q36 0 63 -17.5t27 -50.5v-45q0 -34 -26.5 -49.5t-63.5 -15.5h-782q-37 0 -64 15.5t-27 49.5z" />
<glyph unicode="&#x2013;" horiz-adv-x="1228" d="M102 612v45q0 33 29 50.5t68 17.5h831q39 0 67.5 -17.5t28.5 -50.5v-45q0 -34 -28 -49.5t-68 -15.5h-831q-40 0 -68.5 15.5t-28.5 49.5z" />
<glyph unicode="&#x2014;" horiz-adv-x="2252" d="M102 612v45q0 33 58.5 50.5t135.5 17.5h1663q76 0 133.5 -17.5t57.5 -50.5v-45q0 -34 -56.5 -49.5t-134.5 -15.5h-1663q-79 0 -136.5 15.5t-57.5 49.5z" />
<glyph unicode="&#x202f;" horiz-adv-x="304" />
<glyph unicode="&#x205f;" horiz-adv-x="381" />
<glyph unicode="&#x25fc;" horiz-adv-x="1505" d="M0 0v1505h1505v-1505h-1505z" />
</font>
</defs>
</svg>
